<svg width="24" height="24" viewBox="0 0 24 24" fill="none" xmlns="http://www.w3.org/2000/svg">
<path opacity="0.12" fill-rule="evenodd" clip-rule="evenodd" d="M9.97454 20.6856L9.3901 19.3711C9.18186 18.902 8.83018 18.511 8.38565 18.2544C7.94087 17.9979 7.42632 17.8886 6.91565 17.9422L5.48565 18.0944C5.06002 18.1392 4.63053 18.0596 4.24916 17.8654C3.86779 17.6712 3.55088 17.3706 3.33676 17C3.12259 16.6295 3.02055 16.2047 3.04303 15.7773C3.06552 15.3499 3.21156 14.9382 3.46343 14.5922L4.3101 13.4289C4.61204 13.0137 4.77464 12.5134 4.77454 12C4.77464 11.4866 4.61204 10.9864 4.3101 10.5711L3.46343 9.40778C3.21156 9.06176 3.06552 8.65007 3.04303 8.22267C3.02055 7.79528 3.12259 7.37054 3.33676 7C3.55067 6.62924 3.86754 6.32849 4.24897 6.13423C4.63039 5.93997 5.05998 5.86053 5.48565 5.90556L6.9201 6.05778C7.43077 6.11141 7.94531 6.00212 8.3901 5.74556C8.83297 5.48825 9.18303 5.09736 9.3901 4.62889L9.97454 3.31444C10.1483 2.92317 10.4318 2.59072 10.7908 2.3574C11.1497 2.12408 11.5687 1.99993 11.9968 2C12.4249 1.99993 12.8438 2.12408 13.2028 2.3574C13.5617 2.59072 13.8452 2.92317 14.019 3.31444L14.6079 4.62889C14.8149 5.09736 15.165 5.48825 15.6079 5.74556C16.0527 6.00212 16.5672 6.11141 17.0779 6.05778L18.5079 5.90556C18.9335 5.86053 19.3631 5.93997 19.7446 6.13423C20.126 6.32849 20.4429 6.62924 20.6568 7C20.8709 7.37054 20.973 7.79528 20.9505 8.22267C20.928 8.65007 20.782 9.06176 20.5301 9.40778L19.6834 10.5711C19.3815 10.9864 19.2189 11.4866 19.219 12C19.2164 12.5148 19.3775 13.0171 19.679 13.4344L20.5257 14.5978C20.7775 14.9438 20.9236 15.3555 20.9461 15.7829C20.9685 16.2103 20.8665 16.635 20.6523 17.0056C20.4384 17.3763 20.1215 17.6771 19.7401 17.8713C19.3587 18.0656 18.9291 18.145 18.5034 18.1L17.0734 17.9478C16.5628 17.8941 16.0482 18.0034 15.6034 18.26C15.1614 18.5159 14.8115 18.9047 14.6034 19.3711L14.019 20.6856C13.8452 21.0768 13.5617 21.4093 13.2028 21.6426C12.8438 21.8759 12.4249 22.0001 11.9968 22C11.5687 22.0001 11.1497 21.8759 10.7908 21.6426C10.4318 21.4093 10.1483 21.0768 9.97454 20.6856ZM15.101 12C15.101 13.6569 13.7579 15 12.101 15C10.4442 15 9.10101 13.6569 9.10101 12C9.10101 10.3431 10.4442 9 12.101 9C13.7579 9 15.101 10.3431 15.101 12Z" fill="black"/>
<path d="M12 15C13.6569 15 15 13.6569 15 12C15 10.3431 13.6569 9 12 9C10.3431 9 9 10.3431 9 12C9 13.6569 10.3431 15 12 15Z" stroke="black" stroke-width="2" stroke-linecap="round" stroke-linejoin="round"/>
<path d="M9.3951 19.3711L9.97955 20.6856C10.1533 21.0768 10.4368 21.4093 10.7958 21.6426C11.1547 21.8759 11.5737 22.0001 12.0018 22C12.4299 22.0001 12.8488 21.8759 13.2078 21.6426C13.5667 21.4093 13.8503 21.0768 14.024 20.6856L14.6084 19.3711C14.8165 18.9047 15.1664 18.5159 15.6084 18.26C16.0532 18.0034 16.5678 17.8941 17.0784 17.9478L18.5084 18.1C18.9341 18.145 19.3637 18.0656 19.7451 17.8713C20.1265 17.6771 20.4434 17.3763 20.6573 17.0056C20.8715 16.635 20.9735 16.2103 20.9511 15.7829C20.9286 15.3555 20.7825 14.9438 20.5307 14.5978L19.684 13.4344C19.3825 13.0171 19.2214 12.5148 19.224 12C19.2239 11.4866 19.3865 10.9864 19.6884 10.5711L20.5351 9.40778C20.787 9.06175 20.933 8.65007 20.9555 8.22267C20.978 7.79528 20.8759 7.37054 20.6618 7C20.4479 6.62923 20.131 6.32849 19.7496 6.13423C19.3681 5.93997 18.9386 5.86053 18.5129 5.90556L17.0829 6.05778C16.5722 6.11141 16.0577 6.00212 15.6129 5.74556C15.17 5.48825 14.82 5.09736 14.6129 4.62889L14.024 3.31444C13.8503 2.92317 13.5667 2.59072 13.2078 2.3574C12.8488 2.12408 12.4299 1.99993 12.0018 2C11.5737 1.99993 11.1547 2.12408 10.7958 2.3574C10.4368 2.59072 10.1533 2.92317 9.97955 3.31444L9.3951 4.62889C9.18803 5.09736 8.83798 5.48825 8.3951 5.74556C7.95032 6.00212 7.43577 6.11141 6.9251 6.05778L5.49066 5.90556C5.06499 5.86053 4.6354 5.93997 4.25397 6.13423C3.87255 6.32849 3.55567 6.62923 3.34177 7C3.12759 7.37054 3.02555 7.79528 3.04804 8.22267C3.07052 8.65007 3.21656 9.06175 3.46844 9.40778L4.3151 10.5711C4.61704 10.9864 4.77964 11.4866 4.77955 12C4.77964 12.5134 4.61704 13.0137 4.3151 13.4289L3.46844 14.5922C3.21656 14.9382 3.07052 15.3499 3.04804 15.7773C3.02555 16.2047 3.12759 16.6295 3.34177 17C3.55589 17.3706 3.8728 17.6712 4.25417 17.8654C4.63554 18.0596 5.06502 18.1392 5.49066 18.0944L6.92066 17.9422C7.43133 17.8886 7.94587 17.9979 8.39066 18.2544C8.83519 18.511 9.18687 18.902 9.3951 19.3711Z" stroke="black" stroke-width="2" stroke-linecap="round" stroke-linejoin="round"/>
</svg>
